<svg xmlns="http://www.w3.org/2000/svg" viewBox="0 0 435.62 10.21">
  <title>snow-cap</title>
  <g id="Ebene_2" data-name="Ebene 2">
    <g id="OBJECTS">
      <path d="M0,10.21H435.62C429.4,8,420.66,7.73,417,7.36,406,6.25,398.35,11.08,387,6.1,374.8.71,363.84,4.65,351.38,1.43c-10.87-2.81-14-1.43-24,3.79-7.67,4-13.91-.63-22.28.17-8.63.83-13.9,1.66-22.12-2a29.87,29.87,0,0,0-22.81-.79c-4.09,1.57-4,2-8.62,2.11-2.83.09-5.93-.39-8.72,0-7.25,1.11-12.22,4.1-20.43,3.3C214.94,7.3,207,6.71,198.74,6.71H172.91c-8,0-14.36-2.25-21.91-3.32-15.58-2.21-27.27,4.73-42.16,2C101.73,4,94.63,2.75,87.2,2.75c-7.7,0-13.19,2.52-20.5,3.3a211.54,211.54,0,0,1-38,0c-8.89-.77-16.31-2.5-25.59-3.3C2,2.65,1,2.58,0,2.52Z" fill="#fff"/>
    </g>
  </g>
</svg>
