<svg id="Ebene_1" data-name="Ebene 1" xmlns="http://www.w3.org/2000/svg" viewBox="0 0 241.59 255.11">
  <g>
    <path d="M120.8,9.5c37,0,78.32,10.27,111.08,27.56-4,87.13-41.38,156.56-111.08,206.46C51.09,193.62,13.73,124.19,9.71,37.06,42.47,19.77,83.77,9.5,120.8,9.5m0-4.5C81.93,5,38.93,16,5.1,34.43c3.44,91,42.35,163.19,115.7,214.6,73.35-51.41,112.25-123.57,115.69-214.6C202.67,16,159.67,5,120.8,5Z" fill="#fff"/>
    <g>
      <path d="M135.82,68.85a17.68,17.68,0,0,0,.44-4.66,16.48,16.48,0,0,0-.47-4.64A1.77,1.77,0,0,0,134,58.11c-1,0-1.62.62-1.94,1.86a18.68,18.68,0,0,0-.33,4.22,19.85,19.85,0,0,0,.31,4.22c.33,1.25,1,1.87,1.95,1.87A1.78,1.78,0,0,0,135.82,68.85Z" fill="#fff"/>
      <path d="M181.52,93.35a7.71,7.71,0,0,0,.85-1.37,4.83,4.83,0,0,0,.34-1.93,5.16,5.16,0,0,0-.59-2.62,2.14,2.14,0,0,0-2-1,2.26,2.26,0,0,0-1.71.69,2.36,2.36,0,0,0-.67,1.73,4.15,4.15,0,0,0,1.66,3.1A8.82,8.82,0,0,0,181.52,93.35Z" fill="#fff"/>
      <path d="M152,93.35a7.15,7.15,0,0,0,.85-1.37,4.82,4.82,0,0,0,.35-1.93,5.26,5.26,0,0,0-.59-2.62,2.17,2.17,0,0,0-2.05-1,2.26,2.26,0,0,0-1.71.69,2.39,2.39,0,0,0-.66,1.73,4.17,4.17,0,0,0,1.65,3.1A9,9,0,0,0,152,93.35Z" fill="#fff"/>
      <polygon points="160.03 98.03 160.03 98.3 165.99 98.3 165.99 89.91 165.79 89.91 160.03 98.03" fill="#fff"/>
      <path d="M119.85,56.12a5.81,5.81,0,0,0-.6-2.76A2.35,2.35,0,0,0,117,52.24a1.85,1.85,0,0,0-1.24.31,1.31,1.31,0,0,0-.36,1.07v6.45c1.78,0,3-.29,3.58-.87A4.15,4.15,0,0,0,119.85,56.12Z" fill="#fff"/>
      <path d="M120.8,14.5a224.42,224.42,0,0,0-36.95,3.24c5.78,70,35.52,127.27,88.58,170.53C205.29,147.19,223.5,97.58,226.72,40,195.16,24,155.83,14.5,120.8,14.5Zm34.69,55.58a2.12,2.12,0,0,0,1.15-.42,1.75,1.75,0,0,0,.38-1.32V53.72a1.81,1.81,0,0,0-.31-1.19,1.94,1.94,0,0,0-1.22-.46v-.7H161v8.07a7.3,7.3,0,0,1,1.85-1.64,4.21,4.21,0,0,1,2.2-.59,4,4,0,0,1,2.73,1,4.19,4.19,0,0,1,1.08,3.27v6.89a1.79,1.79,0,0,0,.33,1.28,2.53,2.53,0,0,0,1.1.46v.69h-6.74v-.69a2.09,2.09,0,0,0,1-.42,1.75,1.75,0,0,0,.28-1.21v-7a4.24,4.24,0,0,0-.19-1.47,1.3,1.3,0,0,0-1.33-.88,2.46,2.46,0,0,0-1.55.68c-.52.46-.78.77-.78.94v7.68a1.75,1.75,0,0,0,.28,1.21,2.18,2.18,0,0,0,1.05.42v.69h-6.91ZM144.4,59.3a6.29,6.29,0,0,1,5-2.12,5.48,5.48,0,0,1,3.13.89,2.65,2.65,0,0,1,1.33,2.27,1.82,1.82,0,0,1-.53,1.29,1.78,1.78,0,0,1-1.34.54,1.75,1.75,0,0,1-.95-.25,1.72,1.72,0,0,1-.77-1.62c0-.09,0-.21,0-.37s0-.34,0-.53a1.29,1.29,0,0,0-.35-1,1.38,1.38,0,0,0-.83-.28,2,2,0,0,0-1.89,1.47,9.19,9.19,0,0,0-.56,3.35,8.84,8.84,0,0,0,1.06,4.52,3.23,3.23,0,0,0,2.88,1.82,3.52,3.52,0,0,0,1.93-.51,5.77,5.77,0,0,0,1.18-1.07l.53.49a7.32,7.32,0,0,1-3.28,2.67,6.12,6.12,0,0,1-6.63-1.6,7,7,0,0,1-1.75-4.82A7.41,7.41,0,0,1,144.4,59.3Zm-21.05,10a10.38,10.38,0,0,1-5.86,1.47h-9.23V70a4.17,4.17,0,0,0,1.67-.31,1.75,1.75,0,0,0,.85-1.71V54.13a1.77,1.77,0,0,0-.8-1.7,4.42,4.42,0,0,0-1.72-.33v-.73h8.87a12.94,12.94,0,0,1,4.26.59q3.19,1.11,3.2,4a3.44,3.44,0,0,1-1.31,2.83,6.08,6.08,0,0,1-2.8,1.32v.27a8,8,0,0,1,2.78,1,4.45,4.45,0,0,1,2.29,4A4.5,4.5,0,0,1,123.35,69.3Zm4.17-5.11a7.14,7.14,0,0,1,1.84-5,6,6,0,0,1,4.64-2,5.92,5.92,0,0,1,4.65,2,7.19,7.19,0,0,1,1.83,5,7.29,7.29,0,0,1-1.8,5A5.92,5.92,0,0,1,134,71.2a6,6,0,0,1-4.64-2A7.2,7.2,0,0,1,127.52,64.19Zm15.77,41.61H132.23v-.71q2.25,0,2.88-.6a3.27,3.27,0,0,0,.63-2.33V90.8a3.4,3.4,0,0,0-.25-1.55,1,1,0,0,0-.92-.46,4,4,0,0,0-1.11.24c-.32.1-.75.25-1.3.46v-.75l7.44-3.21h.52v16.8a3.35,3.35,0,0,0,.52,2.19c.34.38,1.23.57,2.65.57Zm11.92-1.17a7.68,7.68,0,0,1-5,1.59A7.48,7.48,0,0,1,146,105a4.15,4.15,0,0,1-1.93-3.72,4.33,4.33,0,0,1,1.61-3.57,7.55,7.55,0,0,1,2.55-1.28v-.28a5.08,5.08,0,0,1-1.37-.92,8.22,8.22,0,0,1-1.51-1.54,4.9,4.9,0,0,1-.79-1.51,5.49,5.49,0,0,1-.19-1.47A4.53,4.53,0,0,1,146.24,87a7.41,7.41,0,0,1,4.82-1.5,6.3,6.3,0,0,1,4.23,1.26,3.71,3.71,0,0,1,1.49,2.93,3.57,3.57,0,0,1-1.51,2.91A8.53,8.53,0,0,1,153,93.8V94a16,16,0,0,1,2.88,2.46,5.74,5.74,0,0,1,1.32,3.75A5.36,5.36,0,0,1,155.21,104.63Zm16.85-3h-1.84v4.22H166v-4.22h-7.34V98.23a4.14,4.14,0,0,1,.24-.43c.09-.14.35-.52.8-1.14l3.06-4.36,4-5.23,1.19-1.54h2.35V98.3h1.84Zm.34-34.43V59.9a1.69,1.69,0,0,0-.3-1.19,2.48,2.48,0,0,0-1.13-.46v-.7h5.41v9.74a2.94,2.94,0,0,0,.21,1.28,1.46,1.46,0,0,0,1.44.71,2.42,2.42,0,0,0,1.35-.43,6.57,6.57,0,0,0,1-.8V59.9a1.7,1.7,0,0,0-.36-1.24,2.13,2.13,0,0,0-1.43-.41v-.7h5.72V67.88a1.84,1.84,0,0,0,.33,1.25,2.26,2.26,0,0,0,1.32.42v.66c-1.78.16-2.9.29-3.36.37a21.57,21.57,0,0,0-2.22.59V69.28a10.43,10.43,0,0,1-1.69,1.25,5.07,5.07,0,0,1-2.46.64,4.29,4.29,0,0,1-2.59-.88A3.65,3.65,0,0,1,172.4,67.15Zm12.28,37.48a7.65,7.65,0,0,1-5,1.59A7.52,7.52,0,0,1,175.5,105a4.17,4.17,0,0,1-1.93-3.72,4.36,4.36,0,0,1,1.61-3.57,7.74,7.74,0,0,1,2.55-1.28v-.28a5.09,5.09,0,0,1-1.36-.92,8.32,8.32,0,0,1-1.52-1.54,5.38,5.38,0,0,1-.79-1.51,5.92,5.92,0,0,1-.19-1.47A4.54,4.54,0,0,1,175.72,87a7.39,7.39,0,0,1,4.82-1.5,6.32,6.32,0,0,1,4.23,1.26,3.7,3.7,0,0,1,1.48,2.93,3.54,3.54,0,0,1-1.51,2.91,8.45,8.45,0,0,1-2.3,1.17V94a16,16,0,0,1,2.88,2.46,5.74,5.74,0,0,1,1.32,3.75A5.34,5.34,0,0,1,184.68,104.63Zm19-33.86v-.69a2.14,2.14,0,0,0,1.1-.38,1.77,1.77,0,0,0,.3-1.25v-7a3.77,3.77,0,0,0-.33-1.74,1.28,1.28,0,0,0-1.25-.61,2.56,2.56,0,0,0-1.57.68c-.54.45-.81.77-.81.94v7.68a1.75,1.75,0,0,0,.28,1.21,2.13,2.13,0,0,0,1.05.42v.69h-6.71v-.69a2.23,2.23,0,0,0,1.08-.36,1.77,1.77,0,0,0,.32-1.27v-7a4,4,0,0,0-.31-1.72,1.28,1.28,0,0,0-1.28-.63,2.32,2.32,0,0,0-1.64.73c-.5.47-.75.77-.75.89v7.68a1.9,1.9,0,0,0,.26,1.21,2.09,2.09,0,0,0,1,.42v.69h-6.86v-.69a2.2,2.2,0,0,0,1.08-.34,1.73,1.73,0,0,0,.47-1.4V59.9a1.79,1.79,0,0,0-.32-1.22,2.26,2.26,0,0,0-1.23-.43v-.7h5.43v2.06a7.88,7.88,0,0,1,1.39-1.46,4.55,4.55,0,0,1,2.78-.94,3.93,3.93,0,0,1,2.67.82,4.15,4.15,0,0,1,1,1.51h.2a7.67,7.67,0,0,1,1.56-1.5,4.37,4.37,0,0,1,2.56-.83,4,4,0,0,1,2.66,1,3.73,3.73,0,0,1,1.17,3.06v7.21a1.78,1.78,0,0,0,.32,1.28,2.21,2.21,0,0,0,1.14.35v.69Z" fill="#fff"/>
      <path d="M178.61,96.8a11.47,11.47,0,0,0-1.09,2,6.48,6.48,0,0,0-.41,2.4,6.12,6.12,0,0,0,.39,2.24,2.54,2.54,0,0,0,2.51,1.85,2.39,2.39,0,0,0,1.77-.76,3.53,3.53,0,0,0,.76-2.56,4.32,4.32,0,0,0-1.14-3A16.4,16.4,0,0,0,178.61,96.8Z" fill="#fff"/>
      <path d="M149.13,96.8a12.23,12.23,0,0,0-1.09,2,6.49,6.49,0,0,0-.4,2.4,6.12,6.12,0,0,0,.39,2.24,2.52,2.52,0,0,0,2.5,1.85,2.39,2.39,0,0,0,1.77-.76,3.53,3.53,0,0,0,.76-2.56,4.36,4.36,0,0,0-1.13-3A16.17,16.17,0,0,0,149.13,96.8Z" fill="#fff"/>
      <path d="M118.8,61.52a6.89,6.89,0,0,0-3.44-.58v7.18a2.28,2.28,0,0,0,.23,1.1,1.39,1.39,0,0,0,1.34.62,3.3,3.3,0,0,0,2.85-1.11,5.16,5.16,0,0,0,.83-3.15C120.61,63.54,120,62.19,118.8,61.52Z" fill="#fff"/>
    </g>
    <path d="M48.37,48.17H18.07v1.2s.07.6.93.66a7.16,7.16,0,0,1,5.65,4L49.5,110.2a3.67,3.67,0,0,0,1.06.14,1.64,1.64,0,0,0,.92-.2L72.92,56.48a30.19,30.19,0,0,1,3.17-5C77.35,50,78.48,50.2,79.34,50s1.07-.63,1.07-1v-.87H61.71v.69a1.1,1.1,0,0,0,.91,1c1.59.07,5.89.26,6.64,2.87s-1.32,6.82-1.32,6.82L55.66,89.8,41.08,56.59s-1.39-3.4-.2-5.05,3.77-1.57,5-1.51a2.82,2.82,0,0,0,2.25-.66,3.15,3.15,0,0,0,.2-1.2Z" fill="#fff"/>
    <path d="M124.2,150.8H93.34s0,1.63,1.32,1.76c.64.07,5.66.69,6,3.11.06.52.19,43.83.19,43.83s.12,6.95-1.1,8.05c-1.07,1-4.87,2-5.78,2.23a.29.29,0,0,0-.21.26l0,1a.28.28,0,0,0,.28.29h50.92l3.62-19.63a.28.28,0,0,0-.32-.33l-1.62.24a.27.27,0,0,0-.23.19c-.33,1.17-2.59,7.9-7.17,11.73s-7.22,4.6-10,5.07-6.82.71-9.1.19a9.34,9.34,0,0,1-4.16-2.47c-.33-.39-.26-5-.26-5v-42s0-3.95,1.36-5.06,4.25-1.69,5.73-1.76A1.51,1.51,0,0,0,124.2,151v-.24Z" fill="#fff"/>
    <path d="M86.3,113v-3.33a.28.28,0,0,0-.28-.28H81V96.65a5.21,5.21,0,0,1,3.59-5.31,4.38,4.38,0,0,1,3,.39c.8.56.51,1.15.19,1.73s-1.47,1.07-1.6,4.54,2.05,4.36,5.3,4.42a4.37,4.37,0,0,0,4.69-4A9.66,9.66,0,0,0,95,93.14l0,0-.12-.18-.14-.21c-2.13-3.24-6.82-4-9.69-4.1-.56,0-1.55,0-1.61,0l-.62,0a17.75,17.75,0,0,0-8,2.78C69.1,94.81,69.18,102,69.18,102l.06,7.36H64.93a.28.28,0,0,0-.29.28V113a.29.29,0,0,0,.29.28h4.31v75.07q5.61,7,11.77,13.67V113.29h5A.29.29,0,0,0,86.3,113Z" fill="#fff"/>
  </g>
</svg>
